<svg id="Lager_1" data-name="Lager 1" xmlns="http://www.w3.org/2000/svg" viewBox="0 0 112 112"><defs><style>.cls-1{fill:#e9f1ec;}.cls-2{fill:none;}.cls-3{fill:#fff;}</style></defs><title>icons</title><circle class="cls-1" cx="56" cy="56" r="56"/><circle class="cls-2" cx="56" cy="56" r="56" transform="translate(-3.85 107.87) rotate(-85.91)"/><g id="MinDoktor_-_Logo" data-name="MinDoktor - Logo"><path class="cls-3" d="M89.75,47.52c-1.08-4.67-3.95-8.62-7.18-11.85a20.63,20.63,0,0,0-13.65-5c-5.39,0-9.34,1.8-12.21,5-2.87-3.23-6.82-5-12.21-5a21.34,21.34,0,0,0-13.65,5,22.66,22.66,0,0,0-7.18,11.85,26,26,0,0,0,1.8,17.24,38.35,38.35,0,0,0,5.75,9c9.7,11.49,23,14.36,25.49,14.36,2.15,0,15.8-2.87,25.49-14.36a34.58,34.58,0,0,0,5.75-9A26,26,0,0,0,89.75,47.52Zm-14,18a24.72,24.72,0,0,1-19,9,24.19,24.19,0,0,1-19-9,2.3,2.3,0,1,1,3.59-2.87,21,21,0,0,0,31.6,0,2.27,2.27,0,0,1,3.23-.36A3.58,3.58,0,0,1,75.74,65.48Z"/></g></svg>