<svg viewBox="0 0 56 56" xmlns="http://www.w3.org/2000/svg" xmlns:xlink="http://www.w3.org/1999/xlink">
  <use xlink:href="#path0_stroke" transform="translate(9.107 4.975)" fill="#2F424A"/>
  <g transform="translate(19 30)" fill="#FF383B">
    <use xlink:href="#path1_fill"/>
    <use xlink:href="#path2_fill"/>
  </g>
  <defs>
    <path id="path0_stroke" d="M27.757 9.5537l.9552.2962-.9552-.2962zm5.6053 1.4186l-.9808-.1949.9808.1949zm-3.2981 17.7212l-.3073-.9516.3073.9516zm5.7871-1.8684l.3073.9517-.3073-.9517zm3.1556 5.8147l-.6311-.7757.6311.7757zM25.7741 43.4249l-.717-.6972.717.6972zm.1864-.1715l.6311.7757-.6311-.7757zm-8.3375 3.8707l-.0535-.9985.0535.9985zM4.6264 35.6874l-.9497.3133.9497-.3133zm.1408.6015l.9934-.1145-.9934.1145zM.0591 15.2701l-.9761.2174.976-.2174zm.1172-1.4539l.9287.3708-.9287-.3708zm4.6116.0532l.9375-.3482-.9375.3482zm3.289 7.4746l.0534.9985-.0535-.9985zm-.678-.4449l-.9374.3482.9375-.3482zm1.3251-.2715l-.9988.0479.9988-.0479zM7.9055 3.5443l.9989-.0478-.9989.0478zm5.6969-.5014l.9913-.1313-.9913.1313zm2.727 17.8593l-.0535-.9986.0535.9986zm-.406-.337l-.9913.1313.9913-.1313zm.7734-.0288l-.9983-.0579.9983.0579zM17.732 2.7173l.9983.058-.9983-.058zm5.7331.0888l-.9997.021.9997-.021zm.6912 17.6771l-.0534-.9985.0534.9985zm.2784-.2169l-.9551-.2962.9551.2962zm-.6034-.0847l.9998-.0211-.9998.0211zM22.4654 2.8272l.3662 17.3755 1.9995-.0422-.3662-17.3755-1.9995.0422zm-1.5826-1.8059c.8945.1348 1.5634.8947 1.5826 1.8059l1.9995-.0422c-.0396-1.881-1.4235-3.4609-3.284-3.7414l-.2981 1.9777zm-2.1525 1.754c.0644-1.1075 1.0654-1.9179 2.1525-1.754l.2981-1.9777c-2.2563-.34-4.3149 1.339-4.4472 3.6157l1.9966.116zm-1.0352 17.8191l1.0352-17.8191-1.9966-.116-1.0352 17.8192 1.9966.1159zm-.7804-.1605l-2.321-17.5224-1.9827.2627 2.3211 17.5223 1.9826-.2626zm-2.321-17.5224c-.3054-2.306-2.5628-3.8283-4.814-3.2378l.5075 1.9345c1.0829-.284 2.1758.4486 2.3238 1.566l1.9827-.2626zM9.7797-.3263c-1.7638.4627-2.9603 2.097-2.873 3.9185l1.9977-.0957c-.0422-.88.5352-1.666 1.3828-1.8883L9.7798-.3263zm-2.873 3.9185l.8185 17.0833 1.9977-.0958-.8185-17.0832-1.9978.0957zM3.8504 14.2176l2.611 7.0297 1.8749-.6964-2.611-7.0297-1.8749.6964zM1.105 14.187c.5002-1.253 2.2776-1.2292 2.7455.0306l1.8749-.6964c-1.1067-2.9796-5.3005-3.0247-6.4779-.0758l1.8575.7416zm-.0698.8657c-.0866-.3372-.0697-.5465.0698-.8657l-1.8575-.7416c-.2293.6046-.294 1.4087-.1645 2.0421l1.9522-.4348zm4.4603 20.0287L1.0352 15.0527l-1.9522.4348 4.4604 20.0287 1.9521-.4348zm.0805.2927a2.6696 2.6696 0 0 1-.0805-.2927l-1.9521.4348a5.53 5.53 0 0 0 .1333.4845l1.8993-.6266zm11.9935 10.7515c-6.0393.3233-11.1392-4.1424-11.8089-9.9512l-1.9868.229c.7886 6.8411 6.7901 12.1 13.9026 11.7193l-.1069-1.9971zm7.4876-3.3979c-1.9404 2.0165-4.4534 3.2557-7.4876 3.3979l.1069 1.9971c3.4314-.2039 6.615-1.7598 8.8146-4.0006l-1.4339-1.3944zm13.3187-10.8636L25.3294 42.4777l1.2622 1.5514 13.0463-10.6136-1.2621-1.5514zm.5684-3.0007c.5671 1.004.3274 2.2719-.5684 3.0007l1.2621 1.5514c1.6515-1.3435 2.0947-3.682 1.0478-5.5356l-1.7415.9835zm-2.7856-1.0866c1.0696-.3454 2.2335.1091 2.7856 1.0866l1.7414-.9835c-1.0196-1.8053-3.1683-2.6434-5.1415-2.0064l.6145 1.9033zm-5.7872 1.8683l5.7872-1.8683-.6145-1.9033-5.7872 1.8684.6145 1.9032zm2.0101-18.8677L28.8954 28.326l1.9616.3897 3.4862-17.5486-1.9617-.3897zm-1.0973-2.1041a1.8937 1.8937 0 0 1 1.0973 2.1041l1.9617.3897c.3561-1.793-.5821-3.5925-2.2567-4.3258l-.8023 1.832zm-2.572 1.1766c.3353-1.0814 1.5366-1.63 2.572-1.1766l.8023-1.832c-2.1293-.9325-4.5961.1962-5.2846 2.4162l1.9103.5924zm-3.3223 10.7127l3.3223-10.7127-1.9103-.5924L23.4796 19.97l1.9103.5925zm1.412-11.3051l.0003-.0009c1.2507-.6581 1.9101.593 1.91.5931v.0001s0 .0001 0 0V9.85s-.0001 0 0 0h-.0001v.0003c0-.0002-1.2509.6587-1.9105-.5918a.0054.0054 0 0 0 .0003-.0009l1.9103.5924.0001-.0006c-.6595-1.2509-1.9104-.5919-1.9104-.5918.0001-.0002.0001-.0001 0 0v.0001l-.0001.0001c0 .0002.6593 1.2512 1.9104.5922-.0001.0003.0001-.0004-.0001 0h.0001l-1.9103-.5924zm5.2846-2.4163h.0001l.0001.0001.0002.0001a1.6186 1.6186 0 0 1 .0044.002c.5097 1.3159-.805 1.8308-.8059 1.8304l-.0007-.0003-.0003-.0001a.001.001 0 0 0-.0002-.0001c.0001 0 0 0 0 0s-.0001 0 0 0l-.0002-.0001-.0003-.0002a.006.006 0 0 0-.0007-.0002c-.0009-.0005-.514-1.3159.7988-1.8336a.1272.1272 0 0 1 .0039.0017l.0004.0002h.0002l.0001.0001h.0001l-.8023 1.832.0001.0001h.0001l.0002.0002a.0033.0033 0 0 1 .0004.0001l.0039.0017c1.3128-.5177.7998-1.8331.7988-1.8335l-.0007-.0003-.0002-.0001-.0002-.0001h-.0001l-.0002-.0002h-.0003a.006.006 0 0 0-.0007-.0004c-.0009-.0004-1.3156.5145-.8059 1.8305a.4623.4623 0 0 0 .0046.002h.0002l.8023-1.832zm2.2567 4.3259l-.0001.0001c.0001-.0001 0 .0001 0 0v.0001l-.0001.0006c-1.1756.7852-1.9616-.3901-1.9616-.3902l.0001-.0002s0-.0001 0 0v-.0002l.0001-.0002c0-.0003 1.1759-.7856 1.9616.3897v.0003c0-.0001 0 0 0 0l-1.9617-.3897v.0001l-.0001.0001v.0002c.7858 1.1752 1.9616.3899 1.9617.3896v-.0002l.0001-.0001v-.0003c0-.0001-.7859-1.1753-1.9615-.3902l-.0002.0007v.0001l1.9617.3897zM30.857 28.7157v.0003l-.0001.0002v.0004l-.0009.0043c-1.1752.7807-1.9611-.3923-1.9608-.3938v-.0004l.0001-.0004.0001-.0003c0 .0001 0 0 0 0v-.0003l.0001-.0004.0001-.0005c.0003-.0012 1.1747-.7849 1.9624.3861a.141.141 0 0 0-.0008.004l-.0001.0004v.0003l-.0001.0001-1.9616-.3897v.0001l-.0001.0001v.0003l-.0001.0005-.001.0049c.7879 1.1699 1.9624.3862 1.9626.3852l.0001-.0008.0001-.0003v-.0003l.0001-.0003.0001-.0003.0001-.0008c.0002-.0012-.7857-1.1742-1.9609-.3935a.1082.1082 0 0 0-.0008.0041l-.0001.0006-.0001.0002v.0003l1.9616.3897zm-1.1001-.9738c.6698-.2163 1.2167.3873 1.1001.9738l-1.9616-.3897c-.1601.8059.5934 1.6041 1.476 1.3191l-.6145-1.9032zm5.7872-1.8684s.0001 0 0 0h.0001v-.0001l.0012-.0003c1.2576.6449.6136 1.9035.6135 1.9035l-.0002.0001h-.0001v.0001c0-.0001 0 0 0 0h-.0001c.0001 0 0 0 0 0h-.0001s-.0001 0 0 0c-.0004.0001-1.2586-.6442-.6155-1.9029l.001-.0004h.0001s.0001 0 0 0h.0001l.6145 1.9033v-.0001h.0002l.0009-.0003c.6432-1.2587-.6151-1.9031-.6153-1.903l-.0002.0001h-.0002l-.0003.0001c-.0001 0-.6441 1.2586.614 1.9034l.0007-.0002h.0002l-.6145-1.9033zm5.1416 2.0064v.0001l.0001.0001.0004.0008c-.3795 1.3615-1.7416.9832-1.7418.9829l-.0001-.0002v-.0001h-.0001v-.0001s0-.0001 0 0l-.0001-.0001v-.0001c-.0003-.0005.3788-1.3621 1.7406-.985l.0008.0015h.0001v.0002l-1.7414.9835v.0001h.0001v.0002a.0045.0045 0 0 1 .0008.0014c1.3619.3771 1.741-.9845 1.7408-.9848l-.0002-.0003v-.0001h-.0001v-.0001l-.0001-.0001-.0001-.0002c-.0001-.0003-1.3622-.3786-1.7418.9829a.009.009 0 0 1 .0005.0009c0-.0001 0 0 0 0l.0001.0001 1.7415-.9835zm-1.0478 5.5356h.0001l-.0002.0001-.0062.0051c-1.4043-.1545-1.2542-1.5579-1.2557-1.5567l-.0002.0002c-.0005.0003.0002-.0002.0002-.0002l-.0001.0001-.0004.0003a.0128.0128 0 0 1 .0008-.0006c.0012-.001-.1489 1.4024 1.2554 1.5569l.0073-.0059-.0006.0005a.0019.0019 0 0 0-.0004.0003v-.0001l-1.2621-1.5514-.0001.0001.0002-.0002a1.6115 1.6115 0 0 1 .0063-.0051c1.4042.1546 1.2542 1.5579 1.2556 1.5567l.0002-.0001c.0005-.0004-.0002.0002-.0002.0001l.0001-.0001.0004-.0003-.0008.0007c-.0011.0009.1489-1.4024-1.2553-1.557a1.3495 1.3495 0 0 0-.0074.006l.0007-.0005.0003-.0003 1.2621 1.5514zM26.491 44.1221a.848.848 0 0 1 .1006-.093l-1.2622-1.5514a3.6905 3.6905 0 0 0-.2723.25l1.4339 1.3944zm-8.8146 4.0006h-.0001c-1.052-.9462-.1064-1.9971-.1063-1.9972l-.0005.0001c-.0002 0 0 0 0 0h-.0002l.0007-.0001c-.0001.0001-.9457 1.051.1045 1.9973l.002-.0001h-.0001l-.1069-1.9971h-.0008c1.0529.9462.1073 1.9971.1072 1.9971h.0005c.0002 0-.0001 0 0 0h.0002-.0007c.0001 0 .9457-1.0509-.1044-1.9972l-.002.0001.1069 1.9971zM3.6767 36.0007c.0553.166.084.2678.0971.4027l1.9868-.229c-.0341-.2747-.1106-.5747-.1846-.8003l-1.8993.6266zm-.1333-.4845v-.0001l-.0001-.0002v-.0003l-.0002-.0005-.0012-.0056c.7613-1.187 1.953-.4311 1.9533-.4297l.0002.0009v.0004l.0001.0003c0-.0001 0 0 0 0v.0001l.0001.0003a.0029.0029 0 0 1 .0001.0004l.0002.0009c.0003.0014-.758 1.1915-1.951.4398a1.6272 1.6272 0 0 1-.0013-.0056l-.0001-.0005v-.0003l-.0001-.0002v-.0001l1.9521-.4348v-.0003l-.0001-.0003-.0001-.0005-.0013-.0056c-1.193-.7517-1.9513.4385-1.951.4398l.0002.001a.0057.0057 0 0 1 .0002.0006v.0005l.0001.0003.0002.001c.0004.0014 1.192.7573 1.9533-.4297l-.0012-.0056-.0001-.0006v-.0002l-.0001-.0003v-.0001l-1.9522.4348zM-.917 15.4875v.0002l.0002.0009c1.1935.7576 1.952-.4354 1.952-.4356v-.0005c-.0001-.0003-1.1933-.7585-1.9524.4339l.0002.0009v.0002l1.9522-.4348v.0002l.0002.0009c-.7591 1.1924-1.9523.4342-1.9523.434v-.0003H-.917v-.0001s0-.0001 0 0v-.0002c-.0001-.0002.7585-1.1931 1.952-.4356a.0137.0137 0 0 0 .0002.001v.0001l-1.9522.4348zm.1645-2.0421v.0001l-.0003.0007c.5584 1.2988 1.8576.7411 1.8577.741v-.0002l.0001-.0001v-.0001c.0001-.0002-.5578-1.2993-1.8571-.7422l-.0003.0007v.0001l1.8574.7416v.0001l-.0003.0007c-1.2994.5571-1.8573-.742-1.8572-.7422v-.0002c0 .0001 0 0 0 0v-.0001l.0001-.0001c0-.0001 1.2993-.5578 1.8577.741l-.0003.0007s0 .0001 0 0v.0001l-1.8575-.7416zm6.4779.0758v-.0001c-.5888 1.2856-1.8748.6966-1.875.6962v.0003h.0001v-.0002c.0001.0005 1.2856.5894 1.875-.6957l-.0001-.0005-1.8749.6964v.0002c.5893-1.2858 1.8748-.6968 1.8748-.6966.0001.0001 0 0 0 0s0 .0001 0 0-1.286-.5891-1.8747.6968v-.0004l1.8748-.6964zm2.298 6.8242a.3159.3159 0 0 1 .313.2055l-1.8749.6964a1.684 1.684 0 0 0 1.6688 1.0952l-.107-1.9971zm-.2982.3301a.3154.3154 0 0 1 .2982-.3301l.1069 1.9971c.9253-.0495 1.637-.8372 1.5926-1.7628l-1.9977.0958zM6.9066 3.5922v-.0011c.9512-1.0457 1.9977-.0952 1.9978-.095v.0005s0 .0001 0 0v.0002c0 .0002-.951 1.0465-1.9977.0964v-.0009l1.9977-.0957v-.0009c-1.0469-.9501-1.9978.0961-1.9978.0963v.0005c0 .0002 1.0466.9508 1.9978-.095v-.0009l-1.9978.0957zM9.7798-.3263H9.78l.0002-.0001h.0002l.0027-.0008c1.2179.715.5057 1.935.505 1.9352l-.0004.0001h-.0002l-.0002.0001h-.0002l-.0001.0001-.0005.0001c-.0007.0002-1.22-.7132-.5099-1.9339l.0027-.0007h.0003a.0026.0026 0 0 1 .0003-.0001l.5074 1.9345h.0002l.0003-.0001a.0622.0622 0 0 1 .0027-.0007c.7101-1.2207-.5093-1.9341-.51-1.934l-.0004.0002H9.78a.0078.0078 0 0 0-.0001 0l-.0002.0001h-.0002L9.779-.326c-.0007.0002-.713 1.2202.5049 1.9352l.0028-.0007h.0002l.0001-.0001h.0002L9.7798-.3264zm4.8139 3.2378v-.0004c-1.1226-.8596-1.9827.2628-1.9827.263v.0001c.0001.0003 1.1227.86 1.9828-.2622l-.0001-.0004-1.9827.2626v-.0004c.86-1.1223 1.9827-.2626 1.9827-.2624v.0003c0 .0001-.8601 1.1225-1.9826.2627 0 .0004-.0001-.0002-.0001-.0002l1.9827-.2626zm1.6822 16.9921a.6115.6115 0 0 1 .6388.5303l-1.9826.2626c.0951.7186.727 1.243 1.4507 1.2043l-.1069-1.9972zm-.5774.5749a.6111.6111 0 0 1 .5774-.5749l.1069 1.9972a1.3888 1.3888 0 0 0 1.3123-1.3064l-1.9966-.1159zm1.0352-17.8192v.0005c.9404 1.0558 1.9966.1157 1.9966.1155 0 .0001 0 0 0 0l.0001-.0001s-.9401-1.0562-1.9966-.1167l-.0001.0008 1.9966.116v.0007c-1.0566.9396-1.9966-.1166-1.9966-.1166v-.0003s1.0562-.9401 1.9967.1157l-.0001.0004c.0001 0 0 0 0 0l-1.9966-.116zm4.4472-3.6157h.0002l.0002.0001.0022.0003c.8371 1.138-.2996 1.9775-.3001 1.9774h-.0005l-.0001-.0001h-.0003l-.0004-.0001c-.0005 0-.8392-1.1374.2962-1.978a.1365.1365 0 0 0 .0025.0004c-.0001 0 .0001 0 0 0h.0001l-.2981 1.9777h.0004a.1723.1723 0 0 0 .0021.0004c1.1354-.8406.2968-1.9779.2962-1.978h-.0008l-.0001-.0001h-.0004c-.0005-.0001-1.1371.8394-.3 1.9773l.0021.0003h.0004l.0001.0001.2981-1.9777zm3.284 3.7414v-.0003c-1.0211-.9784-1.9995.0425-1.9995.0425 0-.0002 0 0 0 0v.0002c0-.0001 1.0203.9785 1.9995-.0413v-.001l-1.9995.042-.0001-.001c.9793-1.0198 1.9996-.0412 1.9996-.0413v.0004c0-.0002-.9784 1.0207-1.9995.0425v-.0005l1.9995-.0422zm-.2551 18.6968a1.3089 1.3089 0 0 0 1.1801-.9192l-1.9103-.5925a.6911.6911 0 0 1 .6233-.4854l.1069 1.9971zm-.1069-1.9971a.6913.6913 0 0 1 .7282.6758l-1.9995.0422c.0155.7391.6399 1.3186 1.3782 1.2791l-.1069-1.9971z"/>
    <path id="path1_fill" d="M15.4 8L17 6.4 14.6 4 17 1.6 15.4 0 13 2.4 10.6 0 9 1.6 11.4 4 9 6.4 10.6 8 13 5.6 15.4 8z"/>
    <path id="path2_fill" d="M8 12.4L6.4 14 4 11.6 1.6 14 0 12.4 2.4 10 0 7.6 1.6 6 4 8.4 6.4 6 8 7.6 5.6 10 8 12.4z"/>
  </defs>
</svg>
