<svg viewBox="0 0 56 56" fill="none" xmlns="http://www.w3.org/2000/svg">
<path d="M21.376 53.3035C21.376 51.0943 23.1668 49.3035 25.376 49.3035V49.3035C27.5851 49.3035 29.376 51.0943 29.376 53.3035V53.3035H21.376V53.3035Z" fill="#FF383B"/>
<path fill-rule="evenodd" clip-rule="evenodd" d="M29.3829 31.738V41.669L19.8545 52.0922C18.4785 53.5974 16.1479 53.7159 14.6263 52.358C13.0789 50.977 12.9579 48.5978 14.3573 47.067L21.9161 38.7983V34.0597L21.3427 33.4553L7.50924 35.6658L1.78222 25.2915L1.78103 25.2922C1.5345 24.8225 1.39502 24.2879 1.39502 23.7206C1.39502 21.8504 2.91114 20.3343 4.78136 20.3343C5.98477 20.3343 7.04156 20.962 7.64217 21.9079L11.1439 28.2511L16.0516 27.4738C15.7007 26.4272 15.9441 25.2277 16.7747 24.3971L25.0556 16.1162C26.7151 14.315 28.8759 13.1301 31.1678 12.9279C31.5997 12.8898 32.031 12.8873 32.4583 12.9209C31.5497 11.8693 31.0002 10.4988 31.0002 9C31.0002 5.68629 33.6865 3 37.0002 3C40.3139 3 43.0002 5.68629 43.0002 9C43.0002 12.2801 40.368 14.9455 37.1007 14.9992C37.2909 15.1762 37.476 15.3645 37.6557 15.5644L39.5383 17.6588L39.5421 17.663L41.9911 20.372L51.7322 22.5719C53.5548 22.9835 54.6949 24.7993 54.2738 26.6198C53.8557 28.4269 52.0563 29.5567 50.247 29.1481L38.3963 26.4718L36.7622 24.6672L37.616 27.7293L42.4096 31.8204C43.7236 32.9418 43.9161 34.9014 42.8455 36.257C41.7212 37.6806 39.6423 37.8922 38.2542 36.7245L31.8155 31.3076L31.4605 29.4113L29.3829 31.738ZM27.3829 40.8926L18.3783 50.7428C17.7413 51.4396 16.6624 51.4944 15.958 50.8658C15.2416 50.2265 15.1856 49.1251 15.8335 48.4164L23.9161 39.5747V33.2618L18.1706 27.2067C17.7975 26.8135 17.8056 26.1946 18.1889 25.8113L26.5001 17.5001C29.2685 14.4704 33.425 13.8495 36.1682 16.9014L38.0547 19L40.9324 22.1832L51.2916 24.5228C52.0328 24.6902 52.4965 25.4286 52.3252 26.169C52.1552 26.9039 51.4234 27.3635 50.6876 27.1973L39.454 24.6603L36.2152 21.0837L27.3829 30.9751V40.8926ZM41.0002 9C41.0002 11.2091 39.2093 13 37.0002 13C34.791 13 33.0002 11.2091 33.0002 9C33.0002 6.79086 34.791 5 37.0002 5C39.2093 5 41.0002 6.79086 41.0002 9ZM35.8534 28.8544L34.9556 25.6345L33.166 27.6523L33.6498 30.2372L39.5418 35.194C40.0661 35.6351 40.8513 35.5551 41.2759 35.0175C41.6803 34.5054 41.6076 33.7653 41.1113 33.3417L35.8534 28.8544ZM5.90645 22.9104C5.65469 22.5614 5.24455 22.3343 4.78136 22.3343C4.0157 22.3343 3.39502 22.9549 3.39502 23.7206C3.39502 23.9235 3.43862 24.1163 3.51697 24.29L3.51463 24.2913L8.58114 33.4691L19.6561 31.6994L17.3702 29.2899L10.071 30.446L5.90999 22.9084L5.90645 22.9104Z" fill="#283D46"/>
</svg>
